<svg xmlns="http://www.w3.org/2000/svg" viewBox="0 0 260 159.201">
  <defs>
    <style>
      .cls-1 {
        fill: #519800;
      }

      .cls-2 {
        fill: #6d6b05;
      }

      .cls-2, .cls-3 {
        opacity: 0.73;
      }

      .cls-3 {
        fill: #c4f4f9;
      }

      .cls-4 {
        fill: #97d886;
      }

      .cls-5, .cls-6, .cls-7 {
        fill: none;
      }

      .cls-5, .cls-7 {
        stroke: #000;
        stroke-linejoin: round;
      }

      .cls-6 {
        stroke: #707070;
      }

      .cls-7 {
        stroke-linecap: round;
      }

      .cls-8, .cls-9 {
        stroke: none;
      }
    </style>
  </defs>
  <g id="Group_3" data-name="Group 3" transform="translate(-436 -262)">
    <ellipse id="Ellipse_1" data-name="Ellipse 1" class="cls-1" cx="54" cy="51.5" rx="54" ry="51.5" transform="translate(436 264)"/>
    <ellipse id="Ellipse_2" data-name="Ellipse 2" class="cls-1" cx="50" cy="52.5" rx="50" ry="52.5" transform="translate(596 262)"/>
    <path id="Path_10" data-name="Path 10" class="cls-1" d="M111.753-5.583c15.823,0,28.763-9.772,44.84-9.581,26.812.318,51.259,3.461,64.162,18.087,9.6,10.878,7.711,38.143,7.711,46.967,0,27.234-51.146,49.311-114.238,49.311S-.009,77.123-.009,49.889c0-7.353-1.861-29.011,16.627-46.967C29.388-9.051,46.94-12.839,72.85-14.035,83.008-14.5,98.535-5.583,111.753-5.583Z" transform="translate(453 322)"/>
    <g id="Group_1" data-name="Group 1" transform="translate(138 110)">
      <g id="Path_5" data-name="Path 5" class="cls-2" transform="translate(316.579 148)">
        <path class="cls-8" d="M 45.05737686157227 95.22842407226563 C 44.73388290405273 95.22842407226563 44.40903472900391 95.21572113037109 44.09185791015625 95.190673828125 C 41.53730773925781 94.98889923095703 38.27762222290039 94.32331085205078 34.66519927978516 93.26586151123047 C 30.74972915649414 92.11971282958984 26.6122932434082 90.55954742431641 22.70018768310547 88.75403594970703 C 18.23800086975098 86.69466400146484 14.1373291015625 84.36308288574219 10.51208209991455 81.82408905029297 C 6.416411876678467 78.95562744140625 3.011082410812378 75.87373352050781 0.3907059133052826 72.66399383544922 C -4.588635444641113 66.56473541259766 -6.69494104385376 60.07828521728516 -5.869717597961426 53.38480377197266 C -5.120588302612305 47.30852127075195 -3.319011688232422 41.60761642456055 -0.5150352716445923 36.44042587280273 C 2.087599992752075 31.644287109375 5.494364738464355 27.40233421325684 9.610635757446289 23.8323802947998 C 13.51651763916016 20.44488716125488 17.89421272277832 17.79823875427246 22.62209320068359 15.96594524383545 C 27.26334190368652 14.16722774505615 31.97137641906738 13.25520420074463 36.61541366577148 13.25520420074463 C 42.57379913330078 13.25520420074463 48.61008071899414 14.27321624755859 54.07171630859375 16.19919204711914 C 57.01178741455078 17.23596954345703 59.75228118896484 18.52747535705566 62.21708297729492 20.03783988952637 C 64.84283447265625 21.64682769775391 67.16940307617188 23.51388740539551 69.13216400146484 25.58714485168457 C 71.84748077392578 28.4553108215332 73.89585876464844 31.74722862243652 75.22039031982422 35.37144088745117 C 76.66256713867188 39.31754684448242 77.26283264160156 43.70856857299805 77.00453948974609 48.42252349853516 C 76.67796325683594 54.38251113891602 75.44805908203125 60.36238098144531 73.3489990234375 66.19601440429688 C 71.4117431640625 71.57999420166016 68.72989654541016 76.75357055664063 65.59339141845703 81.15744781494141 C 62.53900146484375 85.44602966308594 59.06168365478516 89.00144958496094 55.537353515625 91.4393310546875 C 53.76084518432617 92.66819000244141 51.9753532409668 93.61411285400391 50.23048400878906 94.25079345703125 C 48.45265960693359 94.89951324462891 46.71216583251953 95.22842407226563 45.05737686157227 95.22842407226563 Z"/>
        <path class="cls-9" d="M 36.61541366577148 13.75520324707031 C 27.32271957397461 13.75520324707031 17.59925842285156 17.56587219238281 9.938236236572266 24.21011352539063 C 5.867469787597656 27.7406005859375 2.498344421386719 31.93570709228516 -0.0755615234375 36.67890930175781 C -2.849563598632813 41.79084014892578 -4.632034301757813 47.43209838867188 -5.373481750488281 53.44599151611328 C -6.181365966796875 59.99882888793945 -4.1116943359375 66.35830688476563 0.7780380249023438 72.34780883789063 C 3.369361877441406 75.52194213867188 6.740882873535156 78.57244110107422 10.79891586303711 81.41454315185547 C 14.39984893798828 83.93650817871094 18.47450637817383 86.25312042236328 22.90971755981445 88.30006408691406 C 26.79985809326172 90.09542846679688 30.91341018676758 91.64663696289063 34.80567169189453 92.78599548339844 C 38.38564682006836 93.83394622802734 41.61037445068359 94.49309539794922 44.13124847412109 94.69221496582031 C 44.43532943725586 94.71623992919922 44.74692916870117 94.72841644287109 45.05738830566406 94.72841644287109 C 51.47982406616211 94.72841644287109 59.00458908081055 89.54672241210938 65.18612670898438 80.86737823486328 C 68.29651641845703 76.50015258789063 70.95650482177734 71.36834716796875 72.87853240966797 66.0267333984375 C 74.96115112304688 60.23879241943359 76.18136596679688 54.30667495727539 76.50527954101563 48.39515686035156 C 76.75985717773438 43.74925231933594 76.1695556640625 39.42517852783203 74.75076293945313 35.54307556152344 C 73.44977569580078 31.98326110839844 71.43724822998047 28.74925994873047 68.76907348632813 25.93088531494141 C 66.83647155761719 23.88949584960938 64.54417419433594 22.05021667480469 61.95583343505859 20.46415710449219 C 59.52095413208008 18.97212982177734 56.81241226196289 17.69583892822266 53.90543365478516 16.67073059082031 C 48.49659729003906 14.76338195800781 42.51781463623047 13.75520324707031 36.61541366577148 13.75520324707031 M 36.61541366577148 12.75520324707031 C 55.34438705444336 12.75520324707031 78.904296875 22.89051818847656 77.5037841796875 48.44987487792969 C 76.1363525390625 73.40550231933594 59.01167297363281 95.72841644287109 45.05738830566406 95.72841644287109 C 44.71980285644531 95.72841644287109 44.38610076904297 95.71546173095703 44.05249404907227 95.68910980224609 C 29.9289665222168 94.57354736328125 -9.517120361328125 78.88298034667969 -6.365966796875 53.32362747192383 C -3.214813232421875 27.76425933837891 17.88642501831055 12.75520324707031 36.61541366577148 12.75520324707031 Z"/>
      </g>
      <g id="Path_2" data-name="Path 2" class="cls-3" transform="translate(317 166)">
        <path class="cls-8" d="M 39.69819641113281 68.40850830078125 C 39.1806755065918 68.40850830078125 38.65907669067383 68.38999176025391 38.14789581298828 68.35347747802734 C 30.41367530822754 67.801025390625 21.58513450622559 66.78325653076172 14.74650573730469 63.42324829101563 C 11.13053512573242 61.6466064453125 8.34953498840332 59.32332992553711 6.480785369873047 56.51793670654297 C 5.450475215911865 54.97123718261719 4.668245315551758 53.23708724975586 4.155825614929199 51.3636589050293 C 3.611245393753052 49.37269973754883 3.354335308074951 47.16297912597656 3.392215490341187 44.79586791992188 C 3.468675374984741 40.01688766479492 4.477875232696533 35.57558822631836 6.3917555809021 31.5953483581543 C 8.222935676574707 27.78711891174316 10.85310554504395 24.45348739624023 14.20920562744141 21.68705749511719 C 17.49799537658691 18.97611808776855 21.40427589416504 16.87240791320801 25.81953620910645 15.43436813354492 C 30.25920486450195 13.98838806152344 35.09211730957031 13.25520801544189 40.18402481079102 13.25520801544189 C 47.67937469482422 13.25520801544189 53.66310501098633 13.82138824462891 58.47715377807617 14.98610877990723 C 61.16569519042969 15.63657855987549 63.51961517333984 16.48994827270508 65.47352600097656 17.52250862121582 C 67.53787231445313 18.61342811584473 69.22836303710938 19.94268798828125 70.49802398681641 21.47334861755371 C 71.89829254150391 23.16144752502441 72.83929443359375 25.15897750854492 73.29489898681641 27.41044807434082 C 73.77876281738281 29.80164909362793 73.73324584960938 32.56090927124023 73.15961456298828 35.61157989501953 C 72.34168243408203 39.96146011352539 70.809326171875 44.214599609375 68.60508728027344 48.25288009643555 C 66.47726440429688 52.15114974975586 63.82665634155273 55.66770935058594 60.72688674926758 58.70487976074219 C 57.62787628173828 61.74127960205078 54.25293731689453 64.12883758544922 50.69581604003906 65.80123138427734 C 47.01601409912109 67.53128814697266 43.31588363647461 68.40850830078125 39.69819641113281 68.40850830078125 Z"/>
        <path class="cls-9" d="M 40.18402481079102 13.75519561767578 C 35.1447868347168 13.75519561767578 30.36396408081055 14.48011016845703 25.97438430786133 15.90977478027344 C 21.618896484375 17.32834625244141 17.76751708984375 19.40190887451172 14.52723693847656 22.07286834716797 C 11.22747802734375 24.79286956787109 8.64190673828125 28.06958770751953 6.842369079589844 31.81202697753906 C 4.960044860839844 35.72662734985352 3.967445373535156 40.09770965576172 3.892143249511719 44.80386734008789 C 3.756156921386719 53.30250549316406 7.378776550292969 59.24617004394531 14.96699523925781 62.97447967529297 C 21.72846603393555 66.29657745361328 30.49741363525391 67.30572509765625 38.18351364135742 67.854736328125 C 38.68294525146484 67.89041137695313 39.19255447387695 67.90850067138672 39.69819641113281 67.90850067138672 C 43.24178695678711 67.90850067138672 46.87033462524414 67.04727172851563 50.48307800292969 65.34873962402344 C 53.98931503295898 63.70026779174805 57.31810760498047 61.34478759765625 60.376953125 58.34772872924805 C 63.4413948059082 55.34517669677734 66.06208801269531 51.86817932128906 68.16620635986328 48.0133171081543 C 70.34529113769531 44.0211067199707 71.8599853515625 39.81747817993164 72.668212890625 35.5191764831543 C 73.22988891601563 32.53214645385742 73.27584838867188 29.83733749389648 72.80481719970703 27.50961685180664 C 72.36577606201172 25.33992767333984 71.46017456054688 23.41643905639648 70.11318969726563 21.79255676269531 C 68.88559722900391 20.31261825561523 67.24598693847656 19.02470016479492 65.23991394042969 17.96457672119141 C 63.32267761230469 16.95140075683594 61.00779724121094 16.11280059814453 58.35957336425781 15.47207641601563 C 53.58451461791992 14.31679534912109 47.63924407958984 13.75519561767578 40.18402481079102 13.75519561767578 M 40.18402481079102 12.75519561767578 C 60.89469528198242 12.75519561767578 77.15707397460938 17.05810546875 73.65099334716797 35.7039794921875 C 70.26348114013672 53.71936798095703 54.82494354248047 68.90849304199219 39.69819641113281 68.90849304199219 C 39.16880798339844 68.90849304199219 38.64037322998047 68.88992309570313 38.11227416992188 68.85219573974609 C 22.49435424804688 67.73662567138672 2.573516845703125 64.70867919921875 2.89227294921875 44.78786849975586 C 3.211029052734375 24.86706924438477 19.47334671020508 12.75519561767578 40.18402481079102 12.75519561767578 Z"/>
      </g>
      <g id="Path_3" data-name="Path 3" class="cls-4" transform="translate(319.579 166)">
        <path class="cls-8" d="M 36.17606353759766 68.40851593017578 C 35.71044540405273 68.40851593017578 35.24116516113281 68.39009094238281 34.78126525878906 68.353759765625 C 27.79596519470215 67.80202484130859 19.82294464111328 66.78588104248047 13.65118503570557 63.43266296386719 C 10.38789558410645 61.65966033935547 7.877264976501465 59.33967208862305 6.189034938812256 56.53714370727539 C 4.26640510559082 53.34548187255859 3.325305223464966 49.39489364624023 3.391865253448486 44.79510116577148 C 3.461105108261108 40.00980377197266 4.374804973602295 35.56295394897461 6.107574939727783 31.57806205749512 C 7.763844966888428 27.76911163330078 10.14174556732178 24.43582153320313 13.17521476745605 21.67076301574707 C 16.14431571960449 18.9643726348877 19.6701545715332 16.86446189880371 23.65478515625 15.42936229705811 C 27.66042518615723 13.98669242858887 32.02101516723633 13.255202293396 36.61540603637695 13.255202293396 C 43.15180587768555 13.255202293396 48.40425491333008 13.78103256225586 52.67290496826172 14.86273193359375 C 55.04844665527344 15.46471214294434 57.14468383789063 16.25367164611816 58.90338516235352 17.20770263671875 C 60.76052474975586 18.21513175964355 62.30691528320313 19.44219207763672 63.49959564208984 20.85479164123535 C 64.94748687744141 22.56967163085938 65.93168640136719 24.6275520324707 66.42486572265625 26.97127151489258 C 66.95075225830078 29.47047233581543 66.93807220458984 32.38037109375 66.38717651367188 35.62016296386719 C 65.64686584472656 39.97384262084961 64.26014709472656 44.23023223876953 62.26553344726563 48.27112197875977 C 60.34109497070313 52.16984176635742 57.94426345825195 55.68633270263672 55.14164352416992 58.722900390625 C 52.3421745300293 61.75605392456055 49.2944450378418 64.14052581787109 46.08311462402344 65.81008911132813 C 42.7667236328125 67.53427124023438 39.43351364135742 68.40851593017578 36.17606353759766 68.40851593017578 Z"/>
        <path class="cls-9" d="M 36.61540603637695 13.75520324707031 C 32.07893371582031 13.75520324707031 27.77535629272461 14.47674560546875 23.82420349121094 15.8997802734375 C 19.90178680419922 17.31246948242188 16.43227386474609 19.37844085693359 13.51204681396484 22.040283203125 C 10.53102493286133 24.75752258300781 8.194076538085938 28.0335807800293 6.566108703613281 31.77744293212891 C 4.859855651855469 35.70133209228516 3.960098266601563 40.08354187011719 3.891815185546875 44.80234146118164 C 3.826622009277344 49.30733108520508 4.743614196777344 53.16869354248047 6.617332458496094 56.27914428710938 C 8.259017944335938 59.00440979003906 10.70585632324219 61.26338195800781 13.88988494873047 62.99332427978516 C 19.97935485839844 66.30183410644531 27.88772583007813 67.30770874023438 34.82063674926758 67.85531616210938 C 35.26753616333008 67.89060974121094 35.72356414794922 67.90850830078125 36.17606353759766 67.90850830078125 C 39.35242462158203 67.90850830078125 42.60803604125977 67.05323791503906 45.85247421264648 65.36646270751953 C 49.01236724853516 63.72364044189453 52.01407623291016 61.37433242797852 54.77422332763672 58.38378143310547 C 57.54435729980469 55.38242340087891 59.91394424438477 51.90557098388672 61.81717681884766 48.04981231689453 C 63.79033660888672 44.05238342285156 65.16206359863281 39.84224319458008 65.89424133300781 35.53634262084961 C 66.43457794189453 32.3587532043457 66.44847869873047 29.51169204711914 65.93558502197266 27.07423400878906 C 65.45962524414063 24.81234359741211 64.51150512695313 22.82834243774414 63.1175537109375 21.17735290527344 C 61.96521377563477 19.81253051757813 60.46715545654297 18.62480926513672 58.66496276855469 17.64720153808594 C 56.94274520874023 16.71295928955078 54.88540649414063 15.93920135498047 52.55008697509766 15.347412109375 C 48.32211303710938 14.27602386474609 43.10983276367188 13.75520324707031 36.61540603637695 13.75520324707031 M 36.61540603637695 12.75520324707031 C 55.34438323974609 12.75520324707031 70.05069732666016 17.05810546875 66.88009643554688 35.70398330688477 C 63.81671524047852 53.71936798095703 49.85541534423828 68.90850830078125 36.17606735229492 68.90850830078125 C 35.69733428955078 68.90850830078125 35.21945953369141 68.88993072509766 34.74189376831055 68.85221099853516 C 20.61836624145508 67.73664093017578 2.603652954101563 64.70867919921875 2.891914367675781 44.78787231445313 C 3.180168151855469 24.86706161499023 17.88642501831055 12.75520324707031 36.61540603637695 12.75520324707031 Z"/>
      </g>
      <path id="Path_4" data-name="Path 4" d="M22,0C34.15,0,44.253,4.009,44,6s-9.85,6-22,6S.07,7.284,0,6,9.85,0,22,0Z" transform="translate(332.202 206.501) rotate(-14)"/>
    </g>
    <g id="Group_2" data-name="Group 2" transform="translate(148 110)">
      <g id="Path_6" data-name="Path 6" class="cls-2" transform="translate(468.687 148)">
        <path class="cls-8" d="M 23.54773330688477 95.22843170166016 C 23.54720687866211 95.22843170166016 23.54669570922852 95.22843170166016 23.54616928100586 95.22843170166016 C 20.53096961975098 95.22792053222656 17.18875885009766 93.92105865478516 13.88086986541748 91.44911193847656 C 10.62059211730957 89.01273345947266 7.403203010559082 85.45878601074219 4.576547145843506 81.17147827148438 C 1.672591686248779 76.76693725585938 -0.8105193972587585 71.59230041503906 -2.604319334030151 66.20699310302734 C -4.548330307006836 60.37073516845703 -5.687397003173828 54.38785552978516 -5.989874839782715 48.42454528808594 C -6.241886138916016 43.45612335205078 -5.61228609085083 38.85140228271484 -4.118575096130371 34.73830032348633 C -2.753708362579346 30.97996711730957 -0.6569082736968994 27.59652328491211 2.113558292388916 24.68196678161621 C 3.940013885498047 22.76053428649902 6.071835994720459 21.0315113067627 8.449813842773438 19.5429573059082 C 10.6870698928833 18.14247894287109 13.15512466430664 16.9458122253418 15.78542518615723 15.98617839813232 C 20.68247032165527 14.19955635070801 26.06832504272461 13.25520133972168 31.36072540283203 13.25520133972168 C 35.65044784545898 13.25520133972168 39.99992370605469 14.16554546356201 44.28836822509766 15.96094512939453 C 48.6596565246582 17.79103469848633 52.70774841308594 20.43504524230957 56.3201789855957 23.81953430175781 C 60.12957000732422 27.38854598999023 63.28271484375 31.63011169433594 65.6920166015625 36.4263916015625 C 68.28891754150391 41.59612274169922 69.95748901367188 47.30024719238281 70.65138244628906 53.38032150268555 C 71.46629333496094 60.52076721191406 69.20619201660156 67.40671539306641 63.93384552001953 73.84685516357422 C 61.43957901000977 76.89360046386719 58.28379058837891 79.81430053710938 54.55414581298828 82.52782440185547 C 51.24389266967773 84.93622589111328 47.54010391235352 87.14381408691406 43.54569244384766 89.08927917480469 C 40.03025817871094 90.80146026611328 36.33154678344727 92.27886962890625 32.84941482543945 93.36179351806641 C 29.62845802307129 94.36348724365234 26.71839141845703 94.99598693847656 24.43378067016602 95.19093322753906 C 24.14212036132813 95.2158203125 23.84400367736816 95.22843170166016 23.54773330688477 95.22843170166016 Z"/>
        <path class="cls-9" d="M 31.36072540283203 13.75520324707031 C 26.12612533569336 13.75520324707031 20.79953765869141 14.6890869140625 15.95679092407227 16.45590209960938 C 13.35925674438477 17.403564453125 10.92280197143555 18.58480072021484 8.715114593505859 19.96676635742188 C 6.372669219970703 21.43307495117188 4.273513793945313 23.13539886474609 2.475959777832031 25.02644348144531 C -0.2467880249023438 27.89079284667969 -2.307388305664063 31.21575927734375 -3.648605346679688 34.90896606445313 C -5.119422912597656 38.95901489257813 -5.739128112792969 43.49778747558594 -5.490516662597656 48.39922332763672 C -5.190330505371094 54.31741333007813 -4.059661865234375 60.25575637817383 -2.12994384765625 66.04930114746094 C -0.3497085571289063 71.39404296875 2.113700866699219 76.5283203125 4.993980407714844 80.89708709716797 C 10.70391464233398 89.55783081054688 17.6392707824707 94.72842407226563 23.54607009887695 94.72842407226563 C 23.82941436767578 94.72842407226563 24.1137809753418 94.71641540527344 24.39126968383789 94.69273376464844 C 26.64048004150391 94.50080871582031 29.5139045715332 93.87548065185547 32.70092391967773 92.88434600830078 C 36.1593132019043 91.80879974365234 39.83367156982422 90.34105682373047 43.32674789428711 88.63975524902344 C 47.29487991333008 86.70709991455078 50.97334671020508 84.51470947265625 54.25997924804688 82.12351226806641 C 57.95511627197266 79.43510437011719 61.07970428466797 76.54386901855469 63.54695892333984 73.53013610839844 C 68.73048400878906 67.19847869873047 70.95362854003906 60.43816757202148 70.15460205078125 53.43701171875 C 69.46739959716797 47.41554641723633 67.81563568115234 41.76785278320313 65.24521636962891 36.65083312988281 C 62.8624267578125 31.9073486328125 59.74459075927734 27.71303558349609 55.97832489013672 24.18441009521484 C 48.90402221679688 17.55650329589844 39.93125915527344 13.75520324707031 31.36072540283203 13.75520324707031 M 31.36072540283203 12.75520324707031 C 48.69795989990234 12.75520324707031 68.23115539550781 27.76426696777344 71.14815521240234 53.32362365722656 C 74.06513977050781 78.88298034667969 37.55030059814453 94.57354736328125 24.47629165649414 95.68910980224609 C 24.16747665405273 95.71546173095703 23.85857009887695 95.72842407226563 23.54607009887695 95.72842407226563 C 10.62872695922852 95.72842407226563 -5.223411560058594 73.40550231933594 -6.489227294921875 48.44987869262695 C -7.785667419433594 22.89051055908203 14.02350234985352 12.75520324707031 31.36072540283203 12.75520324707031 Z"/>
      </g>
      <g id="Path_7" data-name="Path 7" class="cls-3" transform="translate(462.268 166)">
        <path class="cls-8" d="M 34.29868316650391 68.40850830078125 C 34.29853820800781 68.40850830078125 34.29844284057617 68.40850830078125 34.29829788208008 68.40850830078125 C 31.01084899902344 68.40841674804688 27.6471004486084 67.53385162353516 24.30048942565918 65.80910491943359 C 21.06044006347656 64.13926696777344 17.98552894592285 61.75453948974609 15.16119956970215 58.72115707397461 C 12.33388996124268 55.68456649780273 9.915989875793457 52.16812896728516 7.974669456481934 48.26950836181641 C 5.962629795074463 44.22887802124023 4.563799858093262 39.9727897644043 3.817039728164673 35.61944961547852 C 3.26414966583252 32.39632797241211 3.248679637908936 29.49960899353027 3.771049737930298 27.00973892211914 C 4.261109828948975 24.67392921447754 5.241779804229736 22.6210880279541 6.685829639434814 20.90823745727539 C 7.885339736938477 19.48543739318848 9.444019317626953 18.24955749511719 11.31855964660645 17.23491859436035 C 13.09364986419678 16.27411842346191 15.21135997772217 15.47959804534912 17.61286926269531 14.87342834472656 C 21.92680931091309 13.7845287322998 27.23968887329102 13.25520801544189 33.85507965087891 13.25520801544189 C 38.49085998535156 13.25520801544189 42.89072799682617 13.98685836791992 46.93247985839844 15.42983818054199 C 50.95288848876953 16.86519813537598 54.51033020019531 18.9654483795166 57.5059814453125 21.67222785949707 C 60.56623077392578 24.4373779296875 62.96506881713867 27.77067756652832 64.63585662841797 31.57952880859375 C 66.38369750976563 35.56401824951172 67.30535125732422 40.01039886474609 67.37519073486328 44.79516983032227 C 67.44232940673828 49.39423751831055 66.49307250976563 53.3442497253418 64.55378723144531 56.53547668457031 C 62.85058975219727 59.33823013305664 60.31752014160156 61.65847778320313 57.02495956420898 63.43178939819336 C 50.79776000976563 66.78562927246094 42.75360870361328 67.80191802978516 35.70603942871094 68.35373687744141 C 35.24184036254883 68.39007568359375 34.768310546875 68.40850830078125 34.29868316650391 68.40850830078125 Z"/>
        <path class="cls-9" d="M 33.85507965087891 13.75519561767578 C 27.28149032592773 13.75519561767578 22.00864028930664 14.27954864501953 17.7352294921875 15.35820770263672 C 15.37395858764648 15.95423126220703 13.29515075683594 16.73358154296875 11.55656051635742 17.67463684082031 C 9.737258911132813 18.65937042236328 8.227119445800781 19.85573959350586 7.068088531494141 21.23050689697266 C 5.677928924560547 22.87944793701172 4.733280181884766 24.8584098815918 4.260391235351563 27.11240005493164 C 3.750999450683594 29.54037857055664 3.76763916015625 32.37411880493164 4.309829711914063 35.53490829467773 C 5.048351287841797 39.84015655517578 6.431961059570313 44.04971694946289 8.4222412109375 48.04667663574219 C 10.34215927124023 51.90232849121094 12.73258972167969 55.379150390625 15.52714157104492 58.38057708740234 C 18.31206893920898 61.37165832519531 21.34091949462891 63.72149658203125 24.52954864501953 65.36480712890625 C 27.80463027954102 67.05268096923828 31.09130859375 67.90850067138672 34.29827880859375 67.90850067138672 C 34.75521850585938 67.90850067138672 35.21572875976563 67.89057922363281 35.66701126098633 67.85524749755859 C 42.66256713867188 67.30751037597656 50.64251708984375 66.30133056640625 56.78786087036133 62.99156951904297 C 60.00103759765625 61.26101684570313 62.47011947631836 59.00151062011719 64.12650299072266 56.27581787109375 C 66.01616668701172 53.16621780395508 66.94097900390625 49.3060188293457 66.87525177001953 44.80246734619141 C 66.80638122558594 40.0847282409668 65.89888763427734 35.7034797668457 64.177978515625 31.78038787841797 C 62.53577041625977 28.03670883178711 60.17820739746094 24.76064682006836 57.17076110839844 22.04320907592773 C 54.22396850585938 19.38057708740234 50.72274780273438 17.31394195556641 46.76435852050781 15.90071868896484 C 42.77671813964844 14.47705841064453 38.43341064453125 13.75519561767578 33.85507965087891 13.75519561767578 M 33.85507965087891 12.75519561767578 C 52.74876022338867 12.75519561767578 67.58434295654297 24.86706924438477 67.87513732910156 44.78786849975586 C 68.16591644287109 64.70867919921875 49.99279022216797 67.73662567138672 35.74507141113281 68.85219573974609 C 35.2633056640625 68.88992309570313 34.78122711181641 68.90849304199219 34.29828262329102 68.90849304199219 C 20.49863433837891 68.90849304199219 6.414558410644531 53.71936798095703 3.324226379394531 35.7039794921875 C 0.1257476806640625 17.05810546875 14.96139144897461 12.75519561767578 33.85507965087891 12.75519561767578 Z"/>
      </g>
      <g id="Path_8" data-name="Path 8" class="cls-4" transform="translate(466.506 166)">
        <path class="cls-8" d="M 31.00416374206543 68.40851593017578 C 31.00403594970703 68.40851593017578 31.00394821166992 68.40851593017578 31.00382041931152 68.40851593017578 C 28.07784080505371 68.40842437744141 25.08187103271484 67.53760528564453 22.09911155700684 65.82024383544922 C 19.2042407989502 64.15349578857422 16.4559211730957 61.77194213867188 13.93050098419189 58.74176025390625 C 11.39987087249756 55.7053337097168 9.235410690307617 52.18845367431641 7.497251033782959 48.28882217407227 C 5.694911003112793 44.24519348144531 4.441811084747314 39.98551177978516 3.772751092910767 35.62810134887695 C 3.245071172714233 32.19147109985352 3.263861179351807 29.12731170654297 3.828611135482788 26.52073287963867 C 4.355931282043457 24.08684158325195 5.377861022949219 21.97351264953613 6.866001129150391 20.23943138122559 C 7.977631092071533 18.94408226013184 9.384521484375 17.81851196289063 11.0475606918335 16.89399147033691 C 12.62335109710693 16.01797294616699 14.4820613861084 15.29304218292236 16.57205200195313 14.73934173583984 C 20.34164047241211 13.74067211151123 24.93254089355469 13.255202293396 30.60709190368652 13.255202293396 C 34.74434280395508 13.255202293396 38.6710319519043 13.98468208312988 42.27809143066406 15.42336177825928 C 45.86816024780273 16.85528182983398 49.04561233520508 18.95127296447754 51.72217178344727 21.65312194824219 C 54.4605827331543 24.41741180419922 56.60769271850586 27.75104141235352 58.10383987426758 31.56142234802246 C 59.67032241821289 35.55093383789063 60.49634170532227 40.00315093994141 60.55894088745117 44.79440307617188 C 60.6191520690918 49.40228271484375 59.76800918579102 53.35953140258789 58.02915954589844 56.55622100830078 C 56.50580215454102 59.35678100585938 54.24217987060547 61.67402267456055 51.30120086669922 63.44358062744141 C 45.74118041992188 66.78899383544922 38.55324935913086 67.80321502685547 32.25527191162109 68.35411071777344 C 31.84261703491211 68.39021301269531 31.42165756225586 68.40851593017578 31.00416374206543 68.40851593017578 Z"/>
        <path class="cls-9" d="M 30.60709190368652 13.75520324707031 C 24.97635269165039 13.75520324707031 20.42733001708984 14.23521423339844 16.70009994506836 15.22267150878906 C 14.65014266967773 15.76576232910156 12.8300895690918 16.47511291503906 11.29050064086914 17.33100128173828 C 9.679351806640625 18.22666931152344 8.318389892578125 19.31477355957031 7.245429992675781 20.5650634765625 C 5.811981201171875 22.23540115356445 4.826812744140625 24.27480316162109 4.3172607421875 26.62660217285156 C 3.765510559082031 29.17322158813477 3.748592376708984 32.17623138427734 4.266960144042969 35.55221176147461 C 6.959980010986328 53.09114074707031 19.20395278930664 67.90850830078125 31.0038013458252 67.90850830078125 C 31.40707015991211 67.90850830078125 31.8134708404541 67.89085388183594 32.21170043945313 67.85601043701172 C 38.45274353027344 67.31008911132813 45.5706787109375 66.30804443359375 51.04341888427734 63.01515197753906 C 53.94744110107422 61.26782989501953 56.08882141113281 59.07695007324219 57.58993148803711 56.31730270385742 C 59.28734970092773 53.19678497314453 60.11806106567383 49.32211303710938 60.05899047851563 44.80094146728516 C 59.99716949462891 40.07024383544922 59.18278121948242 35.67730331420898 57.63842010498047 31.74416351318359 C 56.16727066040039 27.99743270874023 54.0572395324707 24.72071075439453 51.36695098876953 22.00501251220703 C 48.73900985717773 19.35223388671875 45.61875152587891 17.29410552978516 42.09284973144531 15.88777923583984 C 38.54499053955078 14.47270202636719 34.68061828613281 13.75520324707031 30.60709190368652 13.75520324707031 M 30.60709190368652 12.75520324707031 C 47.51908111572266 12.75520324707031 60.79859924316406 24.86706161499023 61.05890274047852 44.78787231445313 C 61.31917953491211 64.70867919921875 45.05218124389648 67.73664093017578 32.29884338378906 68.85221099853516 C 31.86760711669922 68.88993072509766 31.43609428405762 68.90850830078125 31.00380516052246 68.90850830078125 C 18.65156936645508 68.90850830078125 6.044723510742188 53.71936798095703 3.278541564941406 35.70398330688477 C 0.4155311584472656 17.05810546875 13.69511032104492 12.75520324707031 30.60709190368652 12.75520324707031 Z"/>
      </g>
      <path id="Path_9" data-name="Path 9" d="M25.063,10.329c-10.728,5.7-21.53,6.907-22.242,5.031S8.7,5.437,19.429-.267,41.006-6.4,41.671-5.3,35.791,4.624,25.063,10.329Z" transform="matrix(-0.839, -0.545, 0.545, -0.839, 513.807, 223.312)"/>
    </g>
    <path id="Path_11" data-name="Path 11" class="cls-5" d="M3.814,10.666S54.556,24.589,104.649,24.46s94.187-13.794,94.187-13.794" transform="translate(466.408 386.334)"/>
    <path id="Path_12" data-name="Path 12" class="cls-6" d="M0,1S13.69-5.646,27.69-5.9,56,0,56,0" transform="translate(542.5 352.5)"/>
    <path id="Path_1" data-name="Path 1" class="cls-7" d="M0,14l5.855-3.861V5.829h3.5l2.155,4.309,3.5-4.309h6.195V2.059L23.9,5.829l5.387-3.771,2.963-3.771L37.1,2.059,39.407-.688l6.848,4.094" transform="translate(467.5 300.5)"/>
    <path id="Path_13" data-name="Path 13" class="cls-7" d="M46.786,14l-5.922-3.861V5.829H37.322l-2.179,4.309L31.6,5.829H25.335V2.059L22.611,5.829,17.163,2.059l-3-3.771-4.9,3.771L6.926-.688,0,3.405" transform="translate(625.754 300.5)"/>
    <path id="Path_14" data-name="Path 14" class="cls-7" d="M25.67,6.9,22.421,4.784V2.422H20.477l-1.2,2.362L17.339,2.422H13.9V.355L12.406,2.422,9.417.355,7.772-1.712,5.082.355,3.8-1.151,0,1.093" transform="translate(631.26 324.329) rotate(31)"/>
    <path id="Path_17" data-name="Path 17" class="cls-7" d="M16.34,3.108,14.272,1.924V.6H13.035l-.761,1.322L11.037.6H8.848V-.555L7.9.6,5.994-.555,4.947-1.712,3.235-.555,2.419-1.4,0-.142" transform="matrix(0.454, -0.891, 0.891, 0.454, 500.737, 342.97)"/>
    <path id="Path_15" data-name="Path 15" class="cls-7" d="M22.686,2.836,19.815,1.719V.471H18.1L17.041,1.719,15.323.471H12.285V-.62L10.964.471,8.322-.62,6.869-1.712,4.491-.62l-1.133-.8L0-.231" transform="matrix(-0.875, -0.485, 0.485, -0.875, 663.894, 340.655)"/>
    <path id="Path_16" data-name="Path 16" class="cls-7" d="M27.369,5.943,23.9,4.062v-2.1H21.833l-1.275,2.1-2.072-2.1H14.821V.125L13.227,1.962,10.04.125,8.287-1.712,5.418.125,4.052-1.213,0,.781" transform="translate(501.322 324.475) rotate(128)"/>
  </g>
</svg>
